<svg id="Layer_1" data-name="Layer 1" xmlns="http://www.w3.org/2000/svg" viewBox="0 0 760.48 748.55"><defs><style>.cls-1{fill:#6d26d7;}.cls-2{fill:#b4f759;}.cls-3{fill:#00c7c5;}.cls-4{fill:#5277f7;}.cls-5{fill:#f4eed8;}.cls-6{fill:#5202b5;}.cls-7{fill:#0e0e15;}.cls-8{fill:#fff;}.cls-9{fill:#d9d9d9;}.cls-10{fill:#bb6df3;}.cls-11{fill:#ebe0be;}</style></defs><title>compuHome</title><path class="cls-1" d="M100.43,545.51A11.92,11.92,0,0,0,77,545l-4.55.54a14.7,14.7,0,0,1-12.14-4.19l-3.24-3.25a11.93,11.93,0,1,0-5.5,5.5l2.24,2.24a14.66,14.66,0,0,1,4,13.42l-.74,3.47a11.93,11.93,0,1,0,7.61,1.61,14.7,14.7,0,0,1,12.62-11.55l.64-.07a11.92,11.92,0,0,0,22.48-7.19Z"/><circle class="cls-2" cx="445.73" cy="161.36" r="91.64" transform="translate(-3.89 11.17) rotate(-1.43)"/><circle class="cls-3" cx="445.73" cy="161.36" r="68.97"/><path class="cls-4" d="M445.73,244.39a83,83,0,1,1,83-83A83.12,83.12,0,0,1,445.73,244.39Zm0-161.26A78.23,78.23,0,1,0,524,161.36,78.33,78.33,0,0,0,445.73,83.13Z"/><path class="cls-5" d="M490.28,154.51a15.13,15.13,0,0,0-29.71-.68l-5.78.69a18.61,18.61,0,0,1-15.4-5.32l-4.12-4.12a15.13,15.13,0,1,0-7,7l2.84,2.85a18.63,18.63,0,0,1,5.06,17l-.93,4.4a15.13,15.13,0,1,0,9.66,2,18.63,18.63,0,0,1,16-14.65l.81-.1a15.13,15.13,0,0,0,28.53-9.12Z"/><path class="cls-6" d="M760.48,596.61s-147.87,10.14-330.29,10.14-330.3-10.14-330.3-10.14,147.88-10.15,330.3-10.15S760.48,596.61,760.48,596.61Z"/><path class="cls-1" d="M427.29,606.72c-3.31,0-6.65,0-10,0C234.87,606.75,87,596.6,87,596.6s147.86-10.15,330.28-10.15h4.17C423.57,593.1,425.49,599.87,427.29,606.72Z"/><path class="cls-1" d="M747.57,596.6s-29.85,2.07-79.27,4.32a116.67,116.67,0,0,1-9.78-9.06C713.76,594.27,747.57,596.6,747.57,596.6Z"/><path class="cls-7" d="M665.44,553.72V303.09a20.65,20.65,0,0,0-20.64-20.65h-455a20.65,20.65,0,0,0-20.64,20.65V553.72Z"/><path class="cls-8" d="M652.34,307.33V553.72H182.26V307.33a9.71,9.71,0,0,1,9.71-9.72H642.62A9.71,9.71,0,0,1,652.34,307.33Z"/><rect class="cls-6" x="543.52" y="332.89" width="3.33" height="166.79"/><rect class="cls-6" x="493.19" y="332.89" width="3.33" height="166.79"/><rect class="cls-6" x="442.85" y="332.89" width="3.33" height="166.79"/><rect class="cls-6" x="392.51" y="332.89" width="3.33" height="166.79"/><rect class="cls-6" x="342.17" y="332.89" width="3.33" height="166.79"/><rect class="cls-6" x="291.84" y="332.89" width="3.33" height="166.79"/><rect class="cls-6" x="251.99" y="518.87" width="330.62" height="3.33"/><rect class="cls-9" x="203.67" y="348.25" width="61.95" height="6.08"/><rect class="cls-9" x="203.67" y="365.27" width="61.95" height="6.08"/><rect class="cls-9" x="203.67" y="382.29" width="61.95" height="6.08"/><rect class="cls-9" x="203.67" y="399.31" width="61.95" height="6.08"/><path class="cls-10" d="M219.62,330.64a5.49,5.49,0,1,1-5.49-5.49A5.49,5.49,0,0,1,219.62,330.64Z"/><path class="cls-10" d="M240.13,330.64a5.49,5.49,0,1,1-5.48-5.49A5.48,5.48,0,0,1,240.13,330.64Z"/><path class="cls-10" d="M260.65,330.64a5.49,5.49,0,1,1-5.49-5.49A5.49,5.49,0,0,1,260.65,330.64Z"/><polygon class="cls-4" points="563.19 344.44 513 361.18 528.83 375.21 495.23 413.12 444.44 344.13 392.17 417.57 343.65 359.83 250.95 480.93 259.38 487.38 344.03 376.79 392.86 434.89 444.58 362.23 494.47 429.98 536.77 382.25 552.6 396.28 563.19 344.44"/><path class="cls-6" d="M627.56,393.48a4.75,4.75,0,0,0-9.32-.21l-1.81.21a5.82,5.82,0,0,1-4.83-1.67l-1.29-1.29a4.74,4.74,0,1,0-2.19,2.19l.89.9A5.82,5.82,0,0,1,610.6,399l-.29,1.38a4.75,4.75,0,1,0,3,.64,5.86,5.86,0,0,1,5-4.6l.25,0a4.75,4.75,0,0,0,8.95-2.86Z"/><path class="cls-6" d="M614,424.08a7.94,7.94,0,0,1,6,2.77h1.65a9.28,9.28,0,1,0,0,10.38H620a8,8,0,1,1-6-13.15Z"/><polygon class="cls-6" points="626.97 428.28 624.2 428.28 616.89 428.28 616.89 430.91 624.81 430.91 627.45 430.91 628.44 430.91 628.44 428.28 626.97 428.28"/><path class="cls-6" d="M624.81,433.18H616.9v2.62h7.3a11.14,11.14,0,0,1-.72,1.57,10.89,10.89,0,1,1,.07-10.52h2.91a13.51,13.51,0,1,0-.06,10.52,12.2,12.2,0,0,0,.56-1.57h1.48v-2.62h-3.63Z"/><path class="cls-6" d="M619.67,466.47a4.8,4.8,0,0,0,2.92-4.76c0-3.18-2.17-5.29-5.65-5.52v-2.85h-3.48v2.83h-1.6v-2.83h-3.48v2.83h-2.6v4.48h2.48v13h-2.48v4.48h2.6v3.21h3.48v-3.21h1.6v3.21h3.48V478.1c3.8-.12,6.21-2.44,6.21-6.09C623.15,469.19,621.82,467,619.67,466.47Zm-7-5.82h3.41a2.18,2.18,0,0,1,.87.16,1.88,1.88,0,0,1,1.11,1.9,2,2,0,0,1-1.11,2,2.18,2.18,0,0,1-.87.17h-3.41Zm4.28,12.91a3.41,3.41,0,0,1-.87.1l-3.41,0V469h3.41a3.4,3.4,0,0,1,.87.11,2.09,2.09,0,0,1,1.64,2.15A2.17,2.17,0,0,1,616.94,473.56Z"/><polygon class="cls-6" points="614.46 346.18 605.76 360.18 614.46 364.26 623.17 360.18 614.46 346.18"/><polygon class="cls-6" points="614.46 376.73 623.17 362.73 614.46 368.43 605.76 362.73 614.46 376.73"/><path class="cls-5" d="M122.82,553.72h589a0,0,0,0,1,0,0v32.74A8.74,8.74,0,0,1,703,595.2H131.56a8.74,8.74,0,0,1-8.74-8.74V553.72a0,0,0,0,1,0,0Z"/><rect class="cls-11" x="362.04" y="553.72" width="110.51" height="13.48"/><path class="cls-11" d="M711.77,553.72v8.61A32.87,32.87,0,0,1,678.9,595.2H155.69a32.87,32.87,0,0,1-32.87-32.87v-8.61h.44a32.87,32.87,0,0,0,32.43,27.48H678.9a32.88,32.88,0,0,0,32.43-27.48Z"/><path class="cls-3" d="M478.66,331.33H750.84a1.92,1.92,0,0,1,1.92,1.92v70.66a1.92,1.92,0,0,1-1.92,1.92H478.66a1.91,1.91,0,0,1-1.91-1.91V333.25A1.92,1.92,0,0,1,478.66,331.33Z"/><rect class="cls-8" x="491.12" y="344.44" width="48.27" height="48.27"/><rect class="cls-8" x="563.19" y="344.44" width="175.18" height="8.74"/><rect class="cls-8" x="563.19" y="364.21" width="175.18" height="8.74"/><rect class="cls-8" x="563.19" y="383.98" width="102.53" height="8.74"/><rect class="cls-3" x="60.04" y="433.5" width="244.44" height="65.97" rx="1.7"/><rect class="cls-8" x="136.6" y="445.11" width="155.13" height="7.73"/><rect class="cls-8" x="136.6" y="462.61" width="155.13" height="7.74"/><rect class="cls-8" x="136.6" y="480.12" width="90.8" height="7.74"/><rect class="cls-8" x="70.88" y="445.11" width="58.02" height="17.5"/><rect class="cls-8" x="70.88" y="470.35" width="58.02" height="17.51"/><rect class="cls-10" x="405.61" y="446.12" width="182.24" height="65.97" rx="1.7"/><rect class="cls-8" x="419.98" y="457.73" width="155.13" height="7.74"/><rect class="cls-8" x="419.98" y="475.23" width="155.13" height="7.74"/><rect class="cls-8" x="419.98" y="492.74" width="90.8" height="7.74"/><rect class="cls-10" x="242.21" y="339.17" width="163.4" height="59.15" rx="1.52"/><rect class="cls-8" x="255.09" y="349.58" width="139.1" height="6.94"/><rect class="cls-8" x="255.09" y="365.27" width="139.1" height="6.94"/><rect class="cls-8" x="255.09" y="380.97" width="81.42" height="6.94"/><path class="cls-8" d="M121.27,169.92l-2-7.24-2.06,7.24a23.61,23.61,0,0,1-11.4,14.29h0a23.61,23.61,0,0,1,11.4,14.29l2.06,7.24,2-7.24a23.61,23.61,0,0,1,11.4-14.29h0A23.61,23.61,0,0,1,121.27,169.92Z"/><path class="cls-8" d="M734.14,155l-2-7.24L730,155a23.64,23.64,0,0,1-11.4,14.29h0A23.64,23.64,0,0,1,730,183.62l2.05,7.24,2-7.24a23.64,23.64,0,0,1,11.4-14.29h0A23.64,23.64,0,0,1,734.14,155Z"/><path class="cls-8" d="M572.49,180.22l-2-7.24-2.05,7.24A23.64,23.64,0,0,1,557,194.51h0a23.67,23.67,0,0,1,11.4,14.29l2.05,7.24,2-7.24a23.67,23.67,0,0,1,11.4-14.29h0A23.64,23.64,0,0,1,572.49,180.22Z"/><path class="cls-8" d="M143.7,137.58l-1.46-5.15-1.46,5.15a16.78,16.78,0,0,1-8.11,10.16h0a16.83,16.83,0,0,1,8.11,10.17l1.46,5.15,1.46-5.15a16.85,16.85,0,0,1,8.1-10.17h0A16.8,16.8,0,0,1,143.7,137.58Z"/><path class="cls-8" d="M564.65,109l-1.46-5.15L561.74,109a16.81,16.81,0,0,1-8.11,10.16h0a16.83,16.83,0,0,1,8.11,10.17l1.45,5.14,1.46-5.14a16.83,16.83,0,0,1,8.11-10.17h0A16.81,16.81,0,0,1,564.65,109Z"/><path class="cls-8" d="M714,122.12,712.57,117l-1.46,5.14A16.83,16.83,0,0,1,703,132.29h0a16.78,16.78,0,0,1,8.11,10.16l1.46,5.15,1.46-5.15a16.78,16.78,0,0,1,8.11-10.16h0A16.83,16.83,0,0,1,714,122.12Z"/><path class="cls-8" d="M723.6,463.5l-1.46-5.15-1.46,5.15a16.78,16.78,0,0,1-8.11,10.16h0a16.83,16.83,0,0,1,8.11,10.17l1.46,5.15,1.46-5.15a16.85,16.85,0,0,1,8.1-10.17h0A16.8,16.8,0,0,1,723.6,463.5Z"/><path class="cls-8" d="M61.5,373.55,60,368.41l-1.46,5.14a16.83,16.83,0,0,1-8.11,10.17h0a16.78,16.78,0,0,1,8.11,10.16L60,399l1.46-5.15a16.78,16.78,0,0,1,8.11-10.16h0A16.83,16.83,0,0,1,61.5,373.55Z"/><path class="cls-2" d="M236.26,307a77.41,77.41,0,1,1-77.4-77.41A77.4,77.4,0,0,1,236.26,307Z"/><path class="cls-3" d="M217.12,307a58.27,58.27,0,1,1-58.26-58.27A58.26,58.26,0,0,1,217.12,307Z"/><path class="cls-4" d="M158.86,377.11A70.14,70.14,0,1,1,229,307,70.22,70.22,0,0,1,158.86,377.11Zm0-136.22A66.09,66.09,0,1,0,224.94,307,66.17,66.17,0,0,0,158.86,240.89Z"/><path class="cls-5" d="M173.72,304.51c5.1-1.8,8.34-7.06,8.34-13.58,0-9.1-6.2-15.11-16.11-15.76v-8.12H156v8.07h-4.57v-8.07h-10v8.07h-7.41v12.77h7.09V325h-7.09v12.77h7.41v9.17h10v-9.17H156v9.17H166v-9.19c10.84-.35,17.7-7,17.7-17.4C183.65,312.27,179.85,306.11,173.72,304.51Zm-20-16.62h9.73a6.61,6.61,0,0,1,2.51.46c2,.82,3.14,2.7,3.14,5.43s-1.17,4.88-3.14,5.76a6.24,6.24,0,0,1-2.51.5h-9.73ZM166,324.73a9.42,9.42,0,0,1-2.51.32l-9.73-.09V311.83h9.73a9.43,9.43,0,0,1,2.51.31,6,6,0,0,1,4.66,6.12C170.61,321.66,168.87,323.94,166,324.73Z"/><circle class="cls-1" cx="278.75" cy="672.41" r="3.92"/><path class="cls-1" d="M299.17,672.41a3.92,3.92,0,1,1-3.92-3.92A3.91,3.91,0,0,1,299.17,672.41Z"/><path class="cls-1" d="M315.67,672.41a3.92,3.92,0,1,1-3.91-3.92A3.91,3.91,0,0,1,315.67,672.41Z"/><circle class="cls-1" cx="328.26" cy="672.41" r="3.92"/><path class="cls-1" d="M348.67,672.41a3.92,3.92,0,1,1-3.91-3.92A3.91,3.91,0,0,1,348.67,672.41Z"/><circle class="cls-1" cx="361.26" cy="672.41" r="3.92"/><path class="cls-1" d="M381.68,672.41a3.92,3.92,0,1,1-3.92-3.92A3.92,3.92,0,0,1,381.68,672.41Z"/><path class="cls-1" d="M398.18,672.41a3.92,3.92,0,1,1-3.92-3.92A3.91,3.91,0,0,1,398.18,672.41Z"/><path class="cls-1" d="M34.56,637.47a3.92,3.92,0,1,1-3.92-3.92A3.92,3.92,0,0,1,34.56,637.47Z"/><path class="cls-1" d="M51.06,637.47a3.92,3.92,0,1,1-3.91-3.92A3.92,3.92,0,0,1,51.06,637.47Z"/><path class="cls-1" d="M67.56,637.47a3.92,3.92,0,1,1-3.91-3.92A3.92,3.92,0,0,1,67.56,637.47Z"/><path class="cls-1" d="M84.06,637.47a3.92,3.92,0,1,1-3.91-3.92A3.92,3.92,0,0,1,84.06,637.47Z"/><path class="cls-1" d="M100.57,637.47a3.92,3.92,0,1,1-3.92-3.92A3.93,3.93,0,0,1,100.57,637.47Z"/><path class="cls-1" d="M117.07,637.47a3.92,3.92,0,1,1-3.92-3.92A3.92,3.92,0,0,1,117.07,637.47Z"/><path class="cls-1" d="M133.57,637.47a3.92,3.92,0,1,1-3.92-3.92A3.92,3.92,0,0,1,133.57,637.47Z"/><path class="cls-1" d="M150.07,637.47a3.92,3.92,0,1,1-3.92-3.92A3.92,3.92,0,0,1,150.07,637.47Z"/><path class="cls-1" d="M528.77,48.08a3.92,3.92,0,1,1-3.92-3.92A3.92,3.92,0,0,1,528.77,48.08Z"/><path class="cls-1" d="M545.27,48.08a3.92,3.92,0,1,1-3.91-3.92A3.92,3.92,0,0,1,545.27,48.08Z"/><path class="cls-1" d="M561.77,48.08a3.92,3.92,0,1,1-3.92-3.92A3.92,3.92,0,0,1,561.77,48.08Z"/><path class="cls-1" d="M578.27,48.08a3.92,3.92,0,1,1-3.91-3.92A3.92,3.92,0,0,1,578.27,48.08Z"/><circle class="cls-1" cx="590.86" cy="48.08" r="3.92"/><path class="cls-1" d="M611.28,48.08a3.92,3.92,0,1,1-3.92-3.92A3.93,3.93,0,0,1,611.28,48.08Z"/><path class="cls-1" d="M627.78,48.08a3.92,3.92,0,1,1-3.92-3.92A3.93,3.93,0,0,1,627.78,48.08Z"/><path class="cls-1" d="M644.28,48.08a3.92,3.92,0,1,1-3.92-3.92A3.93,3.93,0,0,1,644.28,48.08Z"/><path class="cls-6" d="M34.89,97.49A3.92,3.92,0,1,1,31,93.58,3.91,3.91,0,0,1,34.89,97.49Z"/><path class="cls-6" d="M51.39,97.49a3.92,3.92,0,1,1-3.92-3.91A3.91,3.91,0,0,1,51.39,97.49Z"/><path class="cls-6" d="M67.89,97.49A3.92,3.92,0,1,1,64,93.58,3.91,3.91,0,0,1,67.89,97.49Z"/><path class="cls-6" d="M84.39,97.49a3.92,3.92,0,1,1-3.91-3.91A3.91,3.91,0,0,1,84.39,97.49Z"/><path class="cls-6" d="M100.89,97.49A3.92,3.92,0,1,1,97,93.58,3.91,3.91,0,0,1,100.89,97.49Z"/><path class="cls-6" d="M117.39,97.49a3.92,3.92,0,1,1-3.91-3.91A3.91,3.91,0,0,1,117.39,97.49Z"/><path class="cls-6" d="M133.9,97.49A3.92,3.92,0,1,1,130,93.58,3.92,3.92,0,0,1,133.9,97.49Z"/><path class="cls-6" d="M150.4,97.49a3.92,3.92,0,1,1-3.92-3.91A3.91,3.91,0,0,1,150.4,97.49Z"/><path class="cls-2" d="M300.53,155.36a57.15,57.15,0,1,1-57.15-57.15A57.15,57.15,0,0,1,300.53,155.36Z"/><path class="cls-3" d="M286.4,155.36a43,43,0,1,1-43-43A43,43,0,0,1,286.4,155.36Z"/><path class="cls-4" d="M243.38,207.14a51.78,51.78,0,1,1,51.78-51.78A51.84,51.84,0,0,1,243.38,207.14Zm0-100.57a48.79,48.79,0,1,0,48.79,48.79A48.85,48.85,0,0,0,243.38,106.57Z"/><polygon class="cls-5" points="243.38 122.83 224.84 152.64 243.38 161.33 261.92 152.64 243.38 122.83"/><polygon class="cls-5" points="243.38 187.89 261.92 158.08 243.38 170.21 224.84 158.08 243.38 187.89"/><path class="cls-6" d="M522.63,661c4.07-1.43,6.66-5.63,6.66-10.84,0-7.25-4.95-12-12.86-12.56V631.1H508.5v6.44h-3.65V631.1h-7.94v6.44H491v10.19h5.66v29.58H491v10.18h5.91v7.32h7.94v-7.32h3.65v7.32h7.93v-7.33c8.66-.28,14.12-5.56,14.12-13.88C530.55,667.19,527.53,662.27,522.63,661Zm-16-13.26h7.76a5.21,5.21,0,0,1,2,.37c1.58.65,2.51,2.15,2.51,4.34s-.93,3.88-2.51,4.59a5,5,0,0,1-2,.39h-7.76Zm9.76,29.4a7.76,7.76,0,0,1-2,.25l-7.76-.07V666.83h7.76a7.76,7.76,0,0,1,2,.25,4.75,4.75,0,0,1,3.72,4.88A4.92,4.92,0,0,1,516.43,677.13Z"/><path class="cls-1" d="M309.66,28.06a19.92,19.92,0,0,1,15.17,7H329a23.31,23.31,0,1,0,0,26.07h-4.15a20,20,0,1,1-15.17-33.06Z"/><polygon class="cls-1" points="342.26 38.63 335.31 38.63 316.96 38.63 316.96 45.23 336.85 45.23 343.47 45.23 345.97 45.23 345.97 38.63 342.26 38.63"/><path class="cls-1" d="M336.85,50.94H317v6.59h18.36a26.93,26.93,0,0,1-1.82,3.93,27.33,27.33,0,1,1,.2-26.41H341a33.93,33.93,0,1,0-.14,26.41,32.71,32.71,0,0,0,1.4-3.93H346V50.94h-9.12Z"/><path class="cls-1" d="M218.43,652.39a20,20,0,0,1,15.18,7h4.15a23.32,23.32,0,1,0,0,26.07h-4.15a20,20,0,1,1-15.18-33.05Z"/><polygon class="cls-1" points="251.03 662.96 244.09 662.96 225.74 662.96 225.74 669.55 245.63 669.55 252.25 669.55 254.75 669.55 254.75 662.96 251.03 662.96"/><path class="cls-1" d="M245.63,675.26H225.74v6.6H244.1a27.36,27.36,0,1,1-1.63-22.49h7.3a33.94,33.94,0,1,0-.15,26.41,32,32,0,0,0,1.41-3.92h3.72v-6.6h-9.12Z"/><polygon class="cls-1" points="633.94 78.59 612.07 113.77 633.94 124.02 655.82 113.77 633.94 78.59"/><polygon class="cls-1" points="633.94 155.36 655.82 120.19 633.94 134.5 612.07 120.19 633.94 155.36"/><path class="cls-2" d="M730.38,246.89A64.94,64.94,0,1,1,665.44,182,64.95,64.95,0,0,1,730.38,246.89Z"/><path class="cls-3" d="M714.32,246.89A48.88,48.88,0,1,1,665.44,198,48.88,48.88,0,0,1,714.32,246.89Z"/><path class="cls-4" d="M665.44,305.72a58.83,58.83,0,1,1,58.83-58.83A58.9,58.9,0,0,1,665.44,305.72Zm0-114.26a55.44,55.44,0,1,0,55.44,55.43A55.49,55.49,0,0,0,665.44,191.46Z"/><path class="cls-5" d="M664.37,228.94A17.89,17.89,0,0,1,678,235.2h3.72a20.91,20.91,0,1,0,0,23.38H678a17.95,17.95,0,1,1-13.61-29.64Z"/><polygon class="cls-5" points="693.61 238.42 687.39 238.42 670.92 238.42 670.92 244.33 688.76 244.33 694.7 244.33 696.94 244.33 696.94 238.42 693.61 238.42"/><path class="cls-5" d="M688.76,249.45H670.92v5.91h16.47a24.52,24.52,0,1,1-1.46-20.16h6.55a30.44,30.44,0,1,0-.14,23.69,27.88,27.88,0,0,0,1.26-3.53h3.34v-5.91h-8.18Z"/><path class="cls-1" d="M205.11,14.39a9,9,0,0,0-10.26-1.78L186,3.81H154.77a6.84,6.84,0,1,0,0,6.06h28.75l7,7a9,9,0,1,0,14.56-2.52Zm-1.5,11.28a6.91,6.91,0,0,1-11.42-7.13,6.8,6.8,0,0,1,4.29-4.29,6.91,6.91,0,0,1,7.13,11.42Z"/><path class="cls-6" d="M683.64,722a9,9,0,0,0,14.56-10.26l7-7H734a6.84,6.84,0,1,0,0-6.06H702.72l-8.81,8.81A9,9,0,0,0,683.64,722Zm1.51-11.28a6.9,6.9,0,0,1,7.12-1.64,6.8,6.8,0,0,1,4.29,4.29,6.91,6.91,0,1,1-11.41-2.65Z"/><path class="cls-6" d="M649.6,734.16a9.05,9.05,0,0,0,10.27,1.77l8.8,8.81h31.27a6.84,6.84,0,1,0,0-6.06H671.19l-7-7a9,9,0,1,0-14.55,2.52Zm1.5-11.28A6.91,6.91,0,0,1,662.52,730a6.83,6.83,0,0,1-1.64,2.66,6.73,6.73,0,0,1-2.65,1.64,6.91,6.91,0,0,1-7.13-11.42Z"/><path class="cls-1" d="M183.86,34.1a9,9,0,0,0-10.26-1.77l-8.81-8.81H133.52a6.84,6.84,0,1,0,0,6.06h28.75l7,7a9,9,0,1,0,14.55-2.52Zm-1.5,11.28A6.9,6.9,0,0,1,171,38.26a6.6,6.6,0,0,1,1.64-2.66A6.7,6.7,0,0,1,175.24,34a6.9,6.9,0,0,1,7.12,11.41Z"/><polygon class="cls-1" points="729.65 31.02 721.11 16.23 712.57 31.02 717.12 31.02 717.12 44.95 725.1 44.95 725.1 31.02 729.65 31.02"/><polygon class="cls-1" points="744.34 48.1 735.79 33.31 727.25 48.1 731.81 48.1 731.81 62.03 739.78 62.03 739.78 48.1 744.34 48.1"/><polygon class="cls-1" points="14.68 234.09 23.23 248.89 31.77 234.09 27.21 234.09 27.21 220.16 19.24 220.16 19.24 234.09 14.68 234.09"/><polygon class="cls-1" points="0 217.01 8.54 231.81 17.09 217.01 12.53 217.01 12.53 203.08 4.56 203.08 4.56 217.01 0 217.01"/><polygon class="cls-6" points="594.57 658.37 573.52 670.52 594.57 682.67 594.57 676.19 614.38 676.19 614.38 664.85 594.57 664.85 594.57 658.37"/><polygon class="cls-6" points="618.86 637.49 597.82 649.63 618.86 661.78 618.86 655.3 638.67 655.3 638.67 643.96 618.86 643.96 618.86 637.49"/><polygon class="cls-1" points="340.18 231.83 358.57 221.21 340.18 210.59 340.18 216.25 322.86 216.25 322.86 226.17 340.18 226.17 340.18 231.83"/><polygon class="cls-1" points="318.94 250.08 337.33 239.46 318.94 228.84 318.94 234.51 301.62 234.51 301.62 244.42 318.94 244.42 318.94 250.08"/></svg>