<svg id="Layer_1" data-name="Layer 1" xmlns="http://www.w3.org/2000/svg" viewBox="0 0 1048.28 992.88"><defs><style>.cls-1{fill:#5202b5;}.cls-2{fill:#6d26d7;}</style></defs><title>FondoInternas</title><path class="cls-1" d="M1048.28,0V945.38c-72.44,70.39-265.66-59.72-386.85-101-26.74-9.09-26.42-166.69-92.85-212.68-43.52-30.14-101.17-30.44-153.07-43.43C344.55,570.56,277.42,521,262,452c-8.67-38.7-.9-80.86-18-116.82-22.06-46.36-77.09-67.15-119.12-98.19C51.64,182.92,16.83,86.56,34.63,0Z"/><path class="cls-2" d="M1048.28,797.49v406C995.49,991.2,674.49,979.86,650,833.35c-12.88-77.09-27.2-164.51-95.59-209.89-44.79-29.75-104.14-30-157.58-42.86-73-17.53-142.16-66.46-158-134.51-8.92-38.19-.92-79.79-18.56-115.28-22.7-45.75-79.36-66.28-122.63-96.91C22.24,180.52-13.6,85.42,4.72,0H111.56c-8.76,40.08,6.27,84.05,34.52,116.36,33.27,38,82.12,61.93,132.27,77.71,46.41,14.64,98,24.9,130.46,58.72,30.62,31.9,36.81,77.16,54.53,116.47,22.66,50.3,66.26,92.28,119.78,115.36,75.73,32.71,176,33.26,222.11,97.65,27.48,38.41,26.6,90.16,56.29,127.09,19.89,24.75,50.91,39.57,81.45,52A996.24,996.24,0,0,0,1048.28,797.49Z"/><path class="cls-2" d="M450.54,186.57c-16.59,0-16.61,25.77,0,25.77S467.15,186.57,450.54,186.57Z"/><path class="cls-1" d="M699.39,813.16c-16.58,0-16.61,25.78,0,25.78S716,813.16,699.39,813.16Z"/><path class="cls-1" d="M241.45,239.83c-16.59,0-16.62,25.77,0,25.77S258.06,239.83,241.45,239.83Z"/><path class="cls-1" d="M1000.72,813.16c-16.58,0-16.61,25.78,0,25.78S1017.34,813.16,1000.72,813.16Z"/><path class="cls-2" d="M662,537.13c-16.58,0-16.61,25.78,0,25.78S678.66,537.13,662,537.13Z"/><path class="cls-2" d="M457.76,166.18c-8.29,0-8.3,12.89,0,12.89S466.07,166.18,457.76,166.18Z"/><path class="cls-2" d="M952,786.88c-8.29,0-8.31,12.89,0,12.89S960.31,786.88,952,786.88Z"/><path class="cls-1" d="M222.23,195.06c-8.3,0-8.31,12.88,0,12.88S230.54,195.06,222.23,195.06Z"/><path class="cls-2" d="M688.48,443.22c-20.37,0-20.4,31.65,0,31.65S708.88,443.22,688.48,443.22Z"/><path class="cls-2" d="M652.86,423.44c-10.18,0-10.2,15.83,0,15.83S663.06,423.44,652.86,423.44Z"/></svg>