<svg id="Layer_1" data-name="Layer 1" xmlns="http://www.w3.org/2000/svg" viewBox="0 0 1178.81 985.77"><defs><style>.cls-1{fill:#5202b5;}.cls-2{fill:#6d26d7;}.cls-3{fill:#b4f759;}.cls-4{fill:#00c7c5;}.cls-5{fill:#5277f7;}.cls-6{fill:#f4eed8;}.cls-7{fill:#0e0e15;}.cls-8{fill:#fff;}.cls-9{fill:#d9d9d9;}.cls-10{fill:#bb6df3;}.cls-11{fill:#ebe0be;}</style></defs><title>FondoHome</title><path class="cls-1" d="M1178.81,0V985.77H686.08c-35.54-40.39-62.72-88-77.73-139.81-21.92-75.7-25.45-167-89.46-213.07-41.93-30.2-97.47-30.5-147.49-43.51-68.36-17.79-133-67.46-147.9-136.54-8.34-38.77-.86-81-17.37-117-21.25-46.44-74.27-67.28-114.77-98.37C20.82,183.25-12.73,86.72,4.42,0Z"/><path class="cls-2" d="M1178.81,809.56V985.77H686.08c-35.54-40.39-62.72-88-77.73-139.81-21.92-75.7-25.45-167-89.46-213.07-41.93-30.2-97.47-30.5-147.49-43.51-68.36-17.79-133-67.46-147.9-136.54-8.34-38.77-.86-81-17.37-117-21.25-46.44-74.27-67.28-114.77-98.37C20.82,183.25-12.73,86.72,4.42,0h100c-8.2,40.69,5.87,85.32,32.3,118.12C167.85,156.74,213.58,181,260.51,197c43.43,14.85,91.71,25.27,122.1,59.6,28.65,32.38,34.45,78.34,51,118.23A226.64,226.64,0,0,0,545.74,492c70.89,33.2,164.75,33.77,207.88,99.12,25.72,39,24.89,91.53,52.68,129,18.62,25.12,47.65,40.16,76.23,52.76C914.61,787,1145.27,799.29,1178.81,809.56Z"/><path class="cls-2" d="M257.5,684.61a11.92,11.92,0,0,0-23.41-.53l-4.55.54a14.68,14.68,0,0,1-12.14-4.2l-3.24-3.24a11.93,11.93,0,1,0-5.5,5.5l2.24,2.24a14.71,14.71,0,0,1,4,13.42l-.74,3.47a11.93,11.93,0,1,0,7.61,1.61,14.7,14.7,0,0,1,12.62-11.55l.64-.08a11.92,11.92,0,0,0,22.48-7.18Z"/><circle class="cls-3" cx="602.8" cy="300.46" r="91.64" transform="translate(-7.31 15.13) rotate(-1.43)"/><circle class="cls-4" cx="602.8" cy="300.46" r="68.97"/><path class="cls-5" d="M602.8,383.48a83,83,0,1,1,83-83A83.11,83.11,0,0,1,602.8,383.48Zm0-161.25A78.23,78.23,0,1,0,681,300.46,78.31,78.31,0,0,0,602.8,222.23Z"/><path class="cls-6" d="M647.34,293.61a15.12,15.12,0,0,0-29.7-.68l-5.78.69a18.65,18.65,0,0,1-15.41-5.32l-4.11-4.12a15.13,15.13,0,1,0-7,7L588.2,294a18.66,18.66,0,0,1,5.06,17l-.93,4.4a15.13,15.13,0,1,0,9.66,2,18.63,18.63,0,0,1,16-14.65l.8-.1a15.13,15.13,0,0,0,28.53-9.12Z"/><path class="cls-1" d="M917.55,735.7s-147.88,10.15-330.3,10.15S257,735.7,257,735.7s147.88-10.14,330.29-10.14S917.55,735.7,917.55,735.7Z"/><path class="cls-2" d="M584.36,745.81c-3.31,0-6.65,0-10,0-182.42,0-330.29-10.15-330.29-10.15s147.87-10.15,330.29-10.15h4.17C580.64,732.2,582.55,739,584.36,745.81Z"/><path class="cls-2" d="M904.64,735.7s-29.86,2.07-79.27,4.32a116.67,116.67,0,0,1-9.78-9.06C870.83,733.37,904.64,735.7,904.64,735.7Z"/><path class="cls-7" d="M822.51,692.82V442.19a20.64,20.64,0,0,0-20.64-20.65h-455a20.64,20.64,0,0,0-20.64,20.65V692.82Z"/><path class="cls-8" d="M809.41,446.43V692.82H339.32V446.43a9.72,9.72,0,0,1,9.72-9.72H799.69A9.72,9.72,0,0,1,809.41,446.43Z"/><rect class="cls-1" x="700.59" y="471.99" width="3.33" height="166.79"/><rect class="cls-1" x="650.25" y="471.99" width="3.33" height="166.79"/><rect class="cls-1" x="599.92" y="471.99" width="3.33" height="166.79"/><rect class="cls-1" x="549.58" y="471.99" width="3.33" height="166.79"/><rect class="cls-1" x="499.24" y="471.99" width="3.33" height="166.79"/><rect class="cls-1" x="448.91" y="471.99" width="3.33" height="166.79"/><rect class="cls-1" x="409.05" y="657.97" width="330.62" height="3.33"/><rect class="cls-9" x="360.74" y="487.35" width="61.95" height="6.08"/><rect class="cls-9" x="360.74" y="504.37" width="61.95" height="6.08"/><rect class="cls-9" x="360.74" y="521.39" width="61.95" height="6.08"/><rect class="cls-9" x="360.74" y="538.41" width="61.95" height="6.08"/><path class="cls-10" d="M376.69,469.74a5.49,5.49,0,1,1-5.49-5.49A5.49,5.49,0,0,1,376.69,469.74Z"/><path class="cls-10" d="M397.2,469.74a5.49,5.49,0,1,1-5.48-5.49A5.48,5.48,0,0,1,397.2,469.74Z"/><path class="cls-10" d="M417.72,469.74a5.49,5.49,0,1,1-5.49-5.49A5.49,5.49,0,0,1,417.72,469.74Z"/><polygon class="cls-5" points="720.26 483.54 670.07 500.28 685.9 514.31 652.3 552.22 601.51 483.23 549.24 556.67 500.72 498.93 408.02 620.03 416.45 626.48 501.1 515.89 549.93 573.99 601.65 501.32 651.54 569.08 693.84 521.35 709.67 535.38 720.26 483.54"/><path class="cls-1" d="M784.62,532.58a4.74,4.74,0,0,0-9.31-.21l-1.81.21a5.82,5.82,0,0,1-4.83-1.67l-1.29-1.29a4.74,4.74,0,1,0-2.19,2.19l.89.89a5.84,5.84,0,0,1,1.59,5.34l-.29,1.39a4.74,4.74,0,1,0,3,.63,5.85,5.85,0,0,1,5-4.59l.25,0a4.74,4.74,0,0,0,8.94-2.86Z"/><path class="cls-1" d="M771.06,563.17a8,8,0,0,1,6,2.78h1.65a9.28,9.28,0,1,0,0,10.38H777.1a8,8,0,1,1-6-13.16Z"/><polygon class="cls-1" points="784.03 567.38 781.27 567.38 773.96 567.38 773.96 570 781.88 570 784.51 570 785.51 570 785.51 567.38 784.03 567.38"/><path class="cls-1" d="M781.88,572.27H774v2.63h7.31a10.53,10.53,0,0,1-.72,1.56,10.88,10.88,0,1,1,.07-10.51h2.91a13.52,13.52,0,1,0-.06,10.51,11.55,11.55,0,0,0,.56-1.56h1.48v-2.63h-3.63Z"/><path class="cls-1" d="M776.74,605.57a4.8,4.8,0,0,0,2.92-4.76c0-3.19-2.17-5.29-5.65-5.52v-2.85h-3.48v2.83h-1.6v-2.83h-3.49v2.83h-2.6v4.48h2.49v13h-2.49v4.48h2.6v3.21h3.49v-3.21h1.6v3.21H774V617.2c3.8-.12,6.2-2.44,6.2-6.09C780.21,608.29,778.88,606.13,776.74,605.57Zm-7-5.82h3.4a2.19,2.19,0,0,1,.88.16,1.87,1.87,0,0,1,1.11,1.9,2,2,0,0,1-1.11,2,2.19,2.19,0,0,1-.88.17h-3.4ZM774,612.66a3.43,3.43,0,0,1-.88.1l-3.4,0v-4.6h3.4a3.42,3.42,0,0,1,.88.11,2.09,2.09,0,0,1,1.64,2.15A2.17,2.17,0,0,1,774,612.66Z"/><polygon class="cls-1" points="771.53 485.28 762.83 499.27 771.53 503.36 780.24 499.27 771.53 485.28"/><polygon class="cls-1" points="771.53 515.83 780.24 501.83 771.53 507.53 762.83 501.83 771.53 515.83"/><path class="cls-6" d="M279.89,692.82h589a0,0,0,0,1,0,0v32.74a8.74,8.74,0,0,1-8.74,8.74H288.63a8.74,8.74,0,0,1-8.74-8.74V692.82A0,0,0,0,1,279.89,692.82Z"/><rect class="cls-11" x="519.11" y="692.82" width="110.51" height="13.48"/><path class="cls-11" d="M868.84,692.82v8.61A32.87,32.87,0,0,1,836,734.3H312.76a32.87,32.87,0,0,1-32.87-32.87v-8.61h.44a32.87,32.87,0,0,0,32.43,27.48H836a32.86,32.86,0,0,0,32.42-27.48Z"/><path class="cls-4" d="M635.72,470.43H907.91a1.92,1.92,0,0,1,1.92,1.92V543a1.92,1.92,0,0,1-1.92,1.92H635.72a1.91,1.91,0,0,1-1.91-1.91V472.35A1.92,1.92,0,0,1,635.72,470.43Z"/><rect class="cls-8" x="648.19" y="483.54" width="48.27" height="48.27"/><rect class="cls-8" x="720.26" y="483.54" width="175.18" height="8.74"/><rect class="cls-8" x="720.26" y="503.31" width="175.18" height="8.74"/><rect class="cls-8" x="720.26" y="523.08" width="102.53" height="8.74"/><rect class="cls-4" x="217.1" y="572.6" width="244.44" height="65.97" rx="1.7"/><rect class="cls-8" x="293.67" y="584.21" width="155.13" height="7.73"/><rect class="cls-8" x="293.67" y="601.71" width="155.13" height="7.74"/><rect class="cls-8" x="293.67" y="619.22" width="90.8" height="7.74"/><rect class="cls-8" x="227.95" y="584.21" width="58.02" height="17.5"/><rect class="cls-8" x="227.95" y="609.45" width="58.02" height="17.51"/><rect class="cls-10" x="562.68" y="585.22" width="182.24" height="65.97" rx="1.7"/><rect class="cls-8" x="577.05" y="596.83" width="155.13" height="7.74"/><rect class="cls-8" x="577.05" y="614.33" width="155.13" height="7.74"/><rect class="cls-8" x="577.05" y="631.84" width="90.8" height="7.74"/><rect class="cls-10" x="399.28" y="478.27" width="163.4" height="59.15" rx="1.52"/><rect class="cls-8" x="412.16" y="488.68" width="139.1" height="6.94"/><rect class="cls-8" x="412.16" y="504.37" width="139.1" height="6.94"/><rect class="cls-8" x="412.16" y="520.07" width="81.42" height="6.94"/><path class="cls-8" d="M278.34,309l-2.06-7.23-2,7.23a23.63,23.63,0,0,1-11.4,14.3h0a23.61,23.61,0,0,1,11.4,14.29l2,7.23,2.06-7.23a23.61,23.61,0,0,1,11.4-14.29h0A23.63,23.63,0,0,1,278.34,309Z"/><path class="cls-8" d="M891.21,294.14l-2.05-7.24-2,7.24a23.64,23.64,0,0,1-11.4,14.29h0a23.64,23.64,0,0,1,11.4,14.29l2,7.24,2.05-7.24a23.64,23.64,0,0,1,11.4-14.29h0A23.64,23.64,0,0,1,891.21,294.14Z"/><path class="cls-8" d="M729.56,319.32l-2-7.24-2,7.24a23.64,23.64,0,0,1-11.4,14.29h0a23.64,23.64,0,0,1,11.4,14.29l2,7.24,2-7.24A23.64,23.64,0,0,1,741,333.61h0A23.64,23.64,0,0,1,729.56,319.32Z"/><path class="cls-8" d="M300.76,276.68l-1.45-5.15-1.47,5.15a16.8,16.8,0,0,1-8.1,10.16h0a16.85,16.85,0,0,1,8.1,10.17l1.47,5.15,1.45-5.15a16.86,16.86,0,0,1,8.11-10.17h0A16.81,16.81,0,0,1,300.76,276.68Z"/><path class="cls-8" d="M721.72,248.09l-1.46-5.15-1.45,5.15a16.88,16.88,0,0,1-8.11,10.16h0a16.87,16.87,0,0,1,8.11,10.17l1.45,5.14,1.46-5.14a16.8,16.8,0,0,1,8.11-10.17h0A16.81,16.81,0,0,1,721.72,248.09Z"/><path class="cls-8" d="M871.1,261.22l-1.46-5.15-1.46,5.15a16.86,16.86,0,0,1-8.11,10.17h0a16.81,16.81,0,0,1,8.11,10.16l1.46,5.15,1.46-5.15a16.78,16.78,0,0,1,8.11-10.16h0A16.83,16.83,0,0,1,871.1,261.22Z"/><path class="cls-8" d="M880.66,602.6l-1.45-5.15-1.47,5.15a16.8,16.8,0,0,1-8.1,10.16h0a16.82,16.82,0,0,1,8.1,10.17l1.47,5.15,1.45-5.15a16.83,16.83,0,0,1,8.11-10.17h0A16.81,16.81,0,0,1,880.66,602.6Z"/><path class="cls-8" d="M218.57,512.65l-1.47-5.14-1.45,5.14a16.86,16.86,0,0,1-8.11,10.17h0A16.81,16.81,0,0,1,215.65,533l1.45,5.15,1.47-5.15a16.8,16.8,0,0,1,8.1-10.16h0A16.85,16.85,0,0,1,218.57,512.65Z"/><path class="cls-3" d="M393.33,446.07a77.41,77.41,0,1,1-77.4-77.4A77.4,77.4,0,0,1,393.33,446.07Z"/><path class="cls-4" d="M374.19,446.07a58.27,58.27,0,1,1-58.26-58.26A58.27,58.27,0,0,1,374.19,446.07Z"/><path class="cls-5" d="M315.93,516.2a70.13,70.13,0,1,1,70.13-70.13A70.21,70.21,0,0,1,315.93,516.2Zm0-136.21A66.09,66.09,0,1,0,382,446.07,66.17,66.17,0,0,0,315.93,380Z"/><path class="cls-6" d="M330.79,443.6c5.1-1.79,8.34-7.06,8.34-13.58,0-9.09-6.2-15.1-16.12-15.75v-8.13h-9.94v8.07H308.5v-8.07h-9.95v8.07h-7.41V427h7.09v37.07h-7.09v12.77h7.41V486h9.95v-9.17h4.57V486H323v-9.19c10.85-.35,17.71-7,17.71-17.4C340.72,451.37,336.92,445.21,330.79,443.6Zm-20-16.61h9.73a6.55,6.55,0,0,1,2.5.46c2,.82,3.15,2.7,3.15,5.43s-1.17,4.88-3.15,5.76a6.19,6.19,0,0,1-2.5.5h-9.73ZM323,463.83a9.34,9.34,0,0,1-2.5.32l-9.73-.09V450.93h9.73a9.35,9.35,0,0,1,2.5.31,6,6,0,0,1,4.67,6.12C327.68,460.76,325.94,463,323,463.83Z"/><circle class="cls-2" cx="435.82" cy="811.51" r="3.92"/><path class="cls-2" d="M456.24,811.51a3.92,3.92,0,1,1-3.92-3.92A3.92,3.92,0,0,1,456.24,811.51Z"/><path class="cls-2" d="M472.74,811.51a3.92,3.92,0,1,1-3.91-3.92A3.91,3.91,0,0,1,472.74,811.51Z"/><circle class="cls-2" cx="485.32" cy="811.51" r="3.92"/><path class="cls-2" d="M505.74,811.51a3.92,3.92,0,1,1-3.91-3.92A3.91,3.91,0,0,1,505.74,811.51Z"/><circle class="cls-2" cx="518.33" cy="811.51" r="3.92"/><path class="cls-2" d="M538.75,811.51a3.92,3.92,0,1,1-3.92-3.92A3.92,3.92,0,0,1,538.75,811.51Z"/><path class="cls-2" d="M555.25,811.51a3.92,3.92,0,1,1-3.92-3.92A3.92,3.92,0,0,1,555.25,811.51Z"/><path class="cls-2" d="M191.63,776.57a3.92,3.92,0,1,1-3.92-3.92A3.92,3.92,0,0,1,191.63,776.57Z"/><path class="cls-2" d="M208.13,776.57a3.92,3.92,0,1,1-3.92-3.92A3.92,3.92,0,0,1,208.13,776.57Z"/><path class="cls-2" d="M224.63,776.57a3.92,3.92,0,1,1-3.92-3.92A3.92,3.92,0,0,1,224.63,776.57Z"/><path class="cls-2" d="M241.13,776.57a3.92,3.92,0,1,1-3.91-3.92A3.92,3.92,0,0,1,241.13,776.57Z"/><path class="cls-2" d="M257.64,776.57a3.92,3.92,0,1,1-3.92-3.92A3.93,3.93,0,0,1,257.64,776.57Z"/><path class="cls-2" d="M274.14,776.57a3.92,3.92,0,1,1-3.92-3.92A3.93,3.93,0,0,1,274.14,776.57Z"/><path class="cls-2" d="M290.64,776.57a3.92,3.92,0,1,1-3.92-3.92A3.93,3.93,0,0,1,290.64,776.57Z"/><path class="cls-2" d="M307.14,776.57a3.92,3.92,0,1,1-3.92-3.92A3.93,3.93,0,0,1,307.14,776.57Z"/><path class="cls-2" d="M685.84,187.18a3.92,3.92,0,1,1-3.92-3.92A3.92,3.92,0,0,1,685.84,187.18Z"/><path class="cls-2" d="M702.34,187.18a3.92,3.92,0,1,1-3.92-3.92A3.92,3.92,0,0,1,702.34,187.18Z"/><path class="cls-2" d="M718.84,187.18a3.92,3.92,0,1,1-3.92-3.92A3.92,3.92,0,0,1,718.84,187.18Z"/><path class="cls-2" d="M735.34,187.18a3.92,3.92,0,1,1-3.91-3.92A3.92,3.92,0,0,1,735.34,187.18Z"/><circle class="cls-2" cx="747.93" cy="187.18" r="3.92"/><path class="cls-2" d="M768.35,187.18a3.92,3.92,0,1,1-3.92-3.92A3.93,3.93,0,0,1,768.35,187.18Z"/><path class="cls-2" d="M784.85,187.18a3.92,3.92,0,1,1-3.92-3.92A3.93,3.93,0,0,1,784.85,187.18Z"/><path class="cls-2" d="M801.35,187.18a3.92,3.92,0,1,1-3.92-3.92A3.93,3.93,0,0,1,801.35,187.18Z"/><path class="cls-1" d="M192,236.59a3.92,3.92,0,1,1-3.92-3.92A3.92,3.92,0,0,1,192,236.59Z"/><path class="cls-1" d="M208.46,236.59a3.92,3.92,0,1,1-3.92-3.92A3.91,3.91,0,0,1,208.46,236.59Z"/><path class="cls-1" d="M225,236.59a3.92,3.92,0,1,1-3.92-3.92A3.91,3.91,0,0,1,225,236.59Z"/><path class="cls-1" d="M241.46,236.59a3.92,3.92,0,1,1-3.92-3.92A3.91,3.91,0,0,1,241.46,236.59Z"/><path class="cls-1" d="M258,236.59a3.92,3.92,0,1,1-3.92-3.92A3.91,3.91,0,0,1,258,236.59Z"/><path class="cls-1" d="M274.46,236.59a3.92,3.92,0,1,1-3.91-3.92A3.91,3.91,0,0,1,274.46,236.59Z"/><path class="cls-1" d="M291,236.59a3.92,3.92,0,1,1-3.92-3.92A3.92,3.92,0,0,1,291,236.59Z"/><path class="cls-1" d="M307.47,236.59a3.92,3.92,0,1,1-3.92-3.92A3.92,3.92,0,0,1,307.47,236.59Z"/><path class="cls-3" d="M457.6,294.46a57.15,57.15,0,1,1-57.15-57.15A57.15,57.15,0,0,1,457.6,294.46Z"/><path class="cls-4" d="M443.46,294.46a43,43,0,1,1-43-43A43,43,0,0,1,443.46,294.46Z"/><path class="cls-5" d="M400.45,346.23a51.78,51.78,0,1,1,51.78-51.77A51.83,51.83,0,0,1,400.45,346.23Zm0-100.56a48.79,48.79,0,1,0,48.79,48.79A48.84,48.84,0,0,0,400.45,245.67Z"/><polygon class="cls-6" points="400.45 261.93 381.91 291.74 400.45 300.43 418.99 291.74 400.45 261.93"/><polygon class="cls-6" points="400.45 326.99 418.99 297.18 400.45 309.31 381.91 297.18 400.45 326.99"/><path class="cls-1" d="M679.7,800.08c4.07-1.42,6.66-5.63,6.66-10.83,0-7.26-5-12-12.86-12.57V770.2h-7.94v6.44h-3.64V770.2H654v6.44h-5.91v10.19h5.66V816.4h-5.66v10.19H654v7.32h7.94v-7.32h3.64v7.32h7.94v-7.33c8.66-.28,14.12-5.56,14.12-13.88C687.62,806.29,684.6,801.37,679.7,800.08Zm-16-13.25h7.76a5.21,5.21,0,0,1,2,.37c1.57.65,2.51,2.15,2.51,4.34s-.94,3.88-2.51,4.59a5,5,0,0,1-2,.39h-7.76Zm9.76,29.4a7.89,7.89,0,0,1-2,.24l-7.76-.07V805.93h7.76a7.88,7.88,0,0,1,2,.25,4.75,4.75,0,0,1,3.72,4.88A4.93,4.93,0,0,1,673.5,816.23Z"/><path class="cls-2" d="M466.72,167.16a20,20,0,0,1,15.18,7h4.15a23.32,23.32,0,1,0,0,26.07H481.9a20,20,0,1,1-15.18-33.05Z"/><polygon class="cls-2" points="499.33 177.73 492.38 177.73 474.03 177.73 474.03 184.32 493.92 184.32 500.54 184.32 503.04 184.32 503.04 177.73 499.33 177.73"/><path class="cls-2" d="M493.92,190H474v6.6h18.36a26.93,26.93,0,0,1-1.82,3.93,27.34,27.34,0,1,1,.19-26.42h7.3a33.94,33.94,0,1,0-.14,26.42,34.53,34.53,0,0,0,1.4-3.93H503V190h-9.12Z"/><path class="cls-2" d="M375.5,791.49a20,20,0,0,1,15.18,7h4.14a23.32,23.32,0,1,0,0,26.07h-4.14a20,20,0,1,1-15.18-33Z"/><polygon class="cls-2" points="408.1 802.06 401.16 802.06 382.8 802.06 382.8 808.65 402.7 808.65 409.31 808.65 411.81 808.65 411.81 802.06 408.1 802.06"/><path class="cls-2" d="M402.7,814.36H382.8V821h18.37a27,27,0,0,1-1.82,3.93,27.34,27.34,0,1,1,.19-26.41h7.3a33.94,33.94,0,1,0-.15,26.41A31.55,31.55,0,0,0,408.1,821h3.72v-6.59H402.7Z"/><polygon class="cls-2" points="791.01 217.69 769.14 252.87 791.01 263.12 812.88 252.87 791.01 217.69"/><polygon class="cls-2" points="791.01 294.46 812.88 259.29 791.01 273.6 769.14 259.29 791.01 294.46"/><path class="cls-3" d="M887.45,386a64.94,64.94,0,1,1-64.94-64.94A64.95,64.95,0,0,1,887.45,386Z"/><path class="cls-4" d="M871.38,386a48.88,48.88,0,1,1-48.87-48.88A48.88,48.88,0,0,1,871.38,386Z"/><path class="cls-5" d="M822.51,444.82A58.83,58.83,0,1,1,881.34,386,58.9,58.9,0,0,1,822.51,444.82Zm0-114.27A55.44,55.44,0,1,0,878,386,55.5,55.5,0,0,0,822.51,330.55Z"/><path class="cls-6" d="M821.44,368a17.89,17.89,0,0,1,13.61,6.26h3.72a20.91,20.91,0,1,0,0,23.38h-3.72A17.95,17.95,0,1,1,821.44,368Z"/><polygon class="cls-6" points="850.68 377.52 844.45 377.52 827.99 377.52 827.99 383.43 845.83 383.43 851.77 383.43 854.01 383.43 854.01 377.52 850.68 377.52"/><path class="cls-6" d="M845.83,388.55H828v5.91h16.47a24,24,0,0,1-1.63,3.52A24.52,24.52,0,1,1,843,374.3h6.54a30.43,30.43,0,1,0-.13,23.68,29.38,29.38,0,0,0,1.26-3.52H854v-5.91h-8.18Z"/><path class="cls-2" d="M362.18,153.49a9,9,0,0,0-10.26-1.78l-8.81-8.8H311.84a6.84,6.84,0,1,0,0,6.06h28.75l7,7a9,9,0,1,0,14.56-2.51Zm-1.5,11.28a6.91,6.91,0,0,1-11.42-7.13,6.8,6.8,0,0,1,4.29-4.29,6.91,6.91,0,0,1,7.13,11.42Z"/><path class="cls-1" d="M840.71,861.05a9,9,0,0,0,14.56-10.26l7-7h28.75a6.84,6.84,0,1,0,0-6.06H859.79L851,846.5a9,9,0,0,0-10.27,14.55Zm1.5-11.28a6.92,6.92,0,0,1,7.13-1.64,6.73,6.73,0,0,1,2.65,1.64,6.8,6.8,0,0,1,1.64,2.65,6.91,6.91,0,1,1-11.42-2.65Z"/><path class="cls-1" d="M806.67,873.26A9,9,0,0,0,816.93,875l8.81,8.81H857a6.85,6.85,0,1,0,0-6.06H828.26l-7-7a9,9,0,1,0-14.55,2.52Zm1.5-11.28a6.91,6.91,0,0,1,11.42,7.12,6.83,6.83,0,0,1-1.64,2.66,6.73,6.73,0,0,1-2.65,1.64A6.91,6.91,0,0,1,808.17,862Z"/><path class="cls-2" d="M340.93,173.2a9,9,0,0,0-10.26-1.77l-8.81-8.81H290.59a6.84,6.84,0,1,0,0,6.06h28.75l7,7a9,9,0,1,0,14.55-2.52Zm-1.5,11.28A6.9,6.9,0,0,1,328,177.36a6.69,6.69,0,0,1,1.63-2.66,6.83,6.83,0,0,1,2.66-1.64,6.91,6.91,0,0,1,7.12,11.42Z"/><polygon class="cls-2" points="886.72 170.12 878.18 155.32 869.64 170.12 874.19 170.12 874.19 184.05 882.17 184.05 882.17 170.12 886.72 170.12"/><polygon class="cls-2" points="901.4 187.2 892.86 172.41 884.32 187.2 888.88 187.2 888.88 201.13 896.85 201.13 896.85 187.2 901.4 187.2"/><polygon class="cls-2" points="171.75 373.19 180.3 387.99 188.84 373.19 184.28 373.19 184.28 359.26 176.31 359.26 176.31 373.19 171.75 373.19"/><polygon class="cls-2" points="157.07 356.11 165.61 370.91 174.15 356.11 169.6 356.11 169.6 342.18 161.62 342.18 161.62 356.11 157.07 356.11"/><polygon class="cls-1" points="751.64 797.47 730.59 809.62 751.64 821.77 751.64 815.29 771.45 815.29 771.45 803.94 751.64 803.94 751.64 797.47"/><polygon class="cls-1" points="775.93 776.59 754.89 788.73 775.93 800.88 775.93 794.4 795.74 794.4 795.74 783.06 775.93 783.06 775.93 776.59"/><polygon class="cls-2" points="497.25 370.93 515.64 360.31 497.25 349.69 497.25 355.35 479.93 355.35 479.93 365.27 497.25 365.27 497.25 370.93"/><polygon class="cls-2" points="476.01 389.18 494.4 378.56 476.01 367.94 476.01 373.61 458.69 373.61 458.69 383.52 476.01 383.52 476.01 389.18"/><path class="cls-2" d="M176.67,499c-20.37,0-20.4,31.66,0,31.66S197.07,499,176.67,499Z"/><path class="cls-2" d="M574.36,871.82c-20.37,0-20.4,31.66,0,31.66S594.76,871.82,574.36,871.82Z"/><path class="cls-1" d="M141.78,165.2c-20.37,0-20.4,31.66,0,31.66S162.18,165.2,141.78,165.2Z"/><path class="cls-1" d="M720.26,908.48c-20.37,0-20.4,31.66,0,31.66S740.67,908.48,720.26,908.48Z"/><path class="cls-2" d="M932.84,659.64c-20.37,0-20.4,31.65,0,31.65S953.24,659.64,932.84,659.64Z"/><path class="cls-2" d="M184.31,464.15c-10.18,0-10.2,15.82,0,15.82S194.52,464.15,184.31,464.15Z"/><path class="cls-2" d="M538.75,852c-10.19,0-10.21,15.83,0,15.83S549,852,538.75,852Z"/><path class="cls-1" d="M95.24,150.9c-10.18,0-10.2,15.83,0,15.83S105.45,150.9,95.24,150.9Z"/></svg>