<svg id="Layer_1" data-name="Layer 1" xmlns="http://www.w3.org/2000/svg" viewBox="0 0 1178.81 985.77"><defs><style>.cls-1{fill:#5202b5;}.cls-2{fill:#6d26d7;}</style></defs><title>FondoHome02</title><path class="cls-1" d="M1178.81,0V985.77H686.08c-35.54-40.39-62.72-88-77.73-139.81-21.92-75.7-25.45-167-89.46-213.07-41.93-30.2-97.47-30.5-147.49-43.51-68.36-17.79-133-67.46-147.9-136.54-8.34-38.77-.86-81-17.37-117-21.25-46.44-74.27-67.28-114.77-98.37C20.82,183.25-12.73,86.72,4.42,0Z"/><path class="cls-2" d="M1178.81,809.56V985.77H686.08c-35.54-40.39-62.72-88-77.73-139.81-21.92-75.7-25.45-167-89.46-213.07-41.93-30.2-97.47-30.5-147.49-43.51-68.36-17.79-133-67.46-147.9-136.54-8.34-38.77-.86-81-17.37-117-21.25-46.44-74.27-67.28-114.77-98.37C20.82,183.25-12.73,86.72,4.42,0h100c-8.2,40.69,5.87,85.32,32.3,118.12C167.85,156.74,213.58,181,260.51,197c43.43,14.85,91.71,25.27,122.1,59.6,28.65,32.38,34.45,78.34,51,118.23A226.64,226.64,0,0,0,545.74,492c70.89,33.2,164.75,33.77,207.88,99.12,25.72,39,24.89,91.53,52.68,129,18.62,25.12,47.65,40.16,76.23,52.76C914.61,787,1145.27,799.29,1178.81,809.56Z"/><path class="cls-2" d="M176.67,499c-20.37,0-20.4,31.66,0,31.66S197.07,499,176.67,499Z"/><path class="cls-2" d="M574.36,871.82c-20.37,0-20.4,31.66,0,31.66S594.76,871.82,574.36,871.82Z"/><path class="cls-1" d="M141.78,165.2c-20.37,0-20.4,31.66,0,31.66S162.18,165.2,141.78,165.2Z"/><path class="cls-1" d="M720.26,908.48c-20.37,0-20.4,31.66,0,31.66S740.67,908.48,720.26,908.48Z"/><path class="cls-2" d="M932.84,659.64c-20.37,0-20.4,31.65,0,31.65S953.24,659.64,932.84,659.64Z"/><path class="cls-2" d="M184.31,464.15c-10.18,0-10.2,15.82,0,15.82S194.52,464.15,184.31,464.15Z"/><path class="cls-2" d="M538.75,852c-10.19,0-10.21,15.83,0,15.83S549,852,538.75,852Z"/><path class="cls-1" d="M95.24,150.9c-10.18,0-10.2,15.83,0,15.83S105.45,150.9,95.24,150.9Z"/></svg>