<svg id="Layer_1" data-name="Layer 1" xmlns="http://www.w3.org/2000/svg" viewBox="0 0 40.92 40.92"><defs><style>.cls-1{fill:#5202b5;}</style></defs><title>iconPaso3</title><path class="cls-1" d="M39.59,2.84a4.51,4.51,0,0,1,0,6.39l-2.42,2.43L29.26,3.75l2.43-2.43a4.53,4.53,0,0,1,6.39,0ZM13.92,19.09,27.43,5.58l7.91,7.91L21.83,27a4.6,4.6,0,0,1-1.77,1.1l-7.17,2.39a1.84,1.84,0,0,1-2-.54A1.82,1.82,0,0,1,10.43,28l2.39-7.17a4.6,4.6,0,0,1,1.1-1.77ZM15.5,4.67a2.64,2.64,0,0,1,2.59,2.59A2.54,2.54,0,0,1,15.5,9.84H7.75a2.63,2.63,0,0,0-2.58,2.58V33.17a2.58,2.58,0,0,0,2.58,2.58H28.42A2.58,2.58,0,0,0,31,33.17V25.34a2.59,2.59,0,0,1,5.17,0v7.83a7.76,7.76,0,0,1-7.76,7.75H7.75A7.75,7.75,0,0,1,0,33.17V12.42A7.75,7.75,0,0,1,7.75,4.67Z"/></svg>