<svg id="Layer_1" data-name="Layer 1" xmlns="http://www.w3.org/2000/svg" xmlns:xlink="http://www.w3.org/1999/xlink" viewBox="0 0 62.07 64.58"><defs><style>.cls-1{fill:#101010;}.cls-2{fill:#202021;}.cls-3{fill:#303131;}.cls-4{fill:#404141;}.cls-5{fill:#505152;}.cls-6{fill:#616162;}.cls-7{fill:#717172;}.cls-8{fill:#818283;}.cls-9{fill:#919293;}.cls-10{fill:#a1a2a3;}.cls-11{fill:#b1b2b4;}.cls-12{fill:#c1c2c4;}.cls-13{fill:#ccc;}.cls-14{mask:url(#mask);}.cls-15{fill:#505050;}.cls-16{fill:#5202b5;}.cls-17{fill:url(#linear-gradient);}.cls-18{fill:#fff;}</style><mask id="mask" x="2.83" y="5.22" width="66.55" height="56.1" maskUnits="userSpaceOnUse"><path d="M30.36,6.24c33.23-1.2,5.78-.09,39-1V60.28c-33.23.93-5.78-.19-39,1A26.28,26.28,0,0,1,2.83,34.89,28.89,28.89,0,0,1,30.36,6.24Z"/><path class="cls-1" d="M30.79,6.7c30.68-1.1,7.9-.07,38.58-.93V60.28c-30.68.86-7.9-.18-38.58.94C15.6,61.71,3.3,50,3.29,35A28.64,28.64,0,0,1,30.79,6.7Z"/><path class="cls-2" d="M31.23,7.17c28.12-1,10-.07,38.14-.86v54c-28.12.79-10-.16-38.14.86C16.05,61.58,3.76,50,3.75,35.1S16.06,7.65,31.23,7.17Z"/><path class="cls-3" d="M31.67,7.64c25.56-.92,12.14-.07,37.7-.78v53.4c-25.56.72-12.14-.14-37.7.79C16.5,61.46,4.23,50,4.21,35.2S16.51,8.07,31.67,7.64Z"/><path class="cls-4" d="M32.1,8.11c23-.83,14.26-.06,37.27-.71V60.26c-23,.64-14.26-.13-37.27.7C17,61.33,4.69,49.9,4.68,35.31S17,8.5,32.1,8.11Z"/><path class="cls-5" d="M32.54,8.57C53,7.84,48.92,8.52,69.37,8v52.3c-20.45.57-16.38-.11-36.83.63-15.13.33-27.39-11-27.4-25.47S17.41,8.92,32.54,8.57Z"/><path class="cls-6" d="M33,9c17.9-.65,18.51,0,36.4-.55V60.24c-17.89.51-18.5-.1-36.4.55-15.11.29-27.36-11-27.37-25.27S17.86,9.34,33,9Z"/><path class="cls-7" d="M33.41,9.51C48.75,9,54,9.47,69.37,9v51.2c-15.34.43-20.62-.09-36,.47-15.1.24-27.34-11-27.35-25.09S18.31,9.77,33.41,9.51Z"/><path class="cls-8" d="M33.85,10c12.78-.47,22.74,0,35.52-.4V60.23c-12.78.36-22.74-.07-35.52.39C18.76,60.83,6.53,49.71,6.52,35.73S18.76,10.19,33.85,10Z"/><path class="cls-9" d="M34.28,10.44c10.23-.37,24.87,0,35.09-.31v50.1c-10.22.28-24.86-.06-35.09.31C19.21,60.7,7,49.67,7,35.84S19.21,10.62,34.28,10.44Z"/><path class="cls-10" d="M34.72,10.91c7.67-.28,27,0,34.65-.23V60.22c-7.67.21-27,0-34.65.23C19.66,60.58,7.45,49.62,7.45,35.94S19.66,11,34.72,10.91Z"/><path class="cls-11" d="M35.15,11.38c5.12-.19,29.11,0,34.22-.16v49c-5.11.15-29.1,0-34.22.16-15,.08-27.24-10.8-27.24-24.32S20.11,11.46,35.15,11.38Z"/><path class="cls-12" d="M35.59,11.84c2.56-.09,31.23,0,33.78-.07V60.21c-2.55.07-31.22,0-33.78.07-15,0-27.22-10.75-27.22-24.13S20.56,11.89,35.59,11.84Z"/><path class="cls-13" d="M36,12.31H69.37V60.2H36C21,60.2,8.83,49.48,8.83,36.26S21,12.31,36,12.31Z"/></mask><linearGradient id="linear-gradient" x1="19.06" y1="32.67" x2="81.12" y2="32.67" gradientTransform="matrix(-1, 0, 0, 1, 88.44, 0)" gradientUnits="userSpaceOnUse"><stop offset="0" stop-color="#fff"/><stop offset="0.36" stop-color="#f5f6f6"/><stop offset="0.38" stop-color="#f1f1f1"/><stop offset="0.49" stop-color="#dfdfdf"/><stop offset="0.56" stop-color="#d9d9d9"/><stop offset="0.9" stop-color="#fff"/></linearGradient></defs><title>IconoAdmin</title><g class="cls-14"><path class="cls-15" d="M30.36,6.24c33.23-1.2,5.78-.09,39-1V60.28c-33.23.93-5.78-.19-39,1A26.28,26.28,0,0,1,2.83,34.89,28.89,28.89,0,0,1,30.36,6.24Z"/></g><path class="cls-16" d="M7.31,32.67A27.54,27.54,0,0,0,34.84,60.2H69.37V5.14H34.84A27.53,27.53,0,0,0,7.31,32.67Z"/><path class="cls-17" d="M34.84,9.07a23.6,23.6,0,0,0,0,47.2h30.6V9.07ZM69.37,60.2H34.84a27.53,27.53,0,0,1,0-55.06H69.37V60.2Z"/><path class="cls-17" d="M34.84,9.07a23.6,23.6,0,0,0,0,47.2h30.6V9.07ZM69.37,60.2H34.84a27.53,27.53,0,0,1,0-55.06H69.37V60.2Z"/><circle class="cls-18" cx="36.56" cy="32.67" r="18.53" transform="translate(3.51 68.88) rotate(-89.39)"/><path class="cls-16" d="M36.56,15.09A17.58,17.58,0,1,1,19,32.67,17.58,17.58,0,0,1,36.56,15.09ZM20.06,32.67a16.51,16.51,0,1,0,16.5-16.51A16.5,16.5,0,0,0,20.06,32.67Z"/><path class="cls-16" d="M41.67,28.15l1.08,1.46,1.8-.18.39,1.77,1.72.58-.36,1.77,1.34,1.23-1.06,1.47.73,1.66-1.57.92v1.82l-1.8.2-.75,1.65L41.45,42l-1.36,1.21L38.74,42,37,42.5l-.75-1.65-1.8-.2,0-1.82-1.56-.92.73-1.66-1.06-1.47,1.34-1.23-.36-1.77,1.72-.58.39-1.77,1.8.18,1.08-1.46,1.57.9Zm-7.07,7.5a5.5,5.5,0,1,0,5.49-5.49A5.49,5.49,0,0,0,34.6,35.65Z"/><path class="cls-16" d="M35.32,35.65a4.78,4.78,0,1,0,4.77-4.78A4.78,4.78,0,0,0,35.32,35.65Z"/><path class="cls-16" d="M30.31,23.69l.84.79,1.11-.33.46,1.06,1.14.15v1.15l1,.6-.48,1.05.65.95-.86.76L34.35,31l-1.11.34L33,32.47l-1.15-.13-.7.92-1-.59-1,.55-.67-.94-1.14.09-.23-1.13L26,30.85l.25-1.13-.83-.79L26.1,28l-.45-1.07,1-.56,0-1.16,1.15-.1.5-1.05,1.09.37Zm-3.52,5.54a3.5,3.5,0,1,0,2.77-4.09A3.49,3.49,0,0,0,26.79,29.23Z"/><path class="cls-16" d="M27.24,29.14a3,3,0,1,0,2.41-3.56A3,3,0,0,0,27.24,29.14Z"/></svg>