<svg id="Layer_1" data-name="Layer 1" xmlns="http://www.w3.org/2000/svg" viewBox="0 0 36.83 49.1"><defs><style>.cls-1{fill:#5202b5;}</style></defs><title>iconPaso2</title><path class="cls-1" d="M24.55,0V12.28H36.83ZM21.48,12.28V0H4.6A4.6,4.6,0,0,0,0,4.6V44.5a4.6,4.6,0,0,0,4.6,4.6H32.22a4.6,4.6,0,0,0,4.61-4.6V15.34H24.64A3.08,3.08,0,0,1,21.48,12.28ZM26.09,39.9H10.74a1.54,1.54,0,0,1,0-3.07H26.09a1.54,1.54,0,0,1,0,3.07Zm0-6.14H10.74a1.54,1.54,0,0,1,0-3.07H26.09a1.54,1.54,0,0,1,0,3.07Zm1.53-7.67a1.54,1.54,0,0,1-1.53,1.53H10.74a1.54,1.54,0,0,1,0-3.07H26.09A1.54,1.54,0,0,1,27.62,26.09Z"/></svg>