<svg id="Layer_1" data-name="Layer 1" xmlns="http://www.w3.org/2000/svg" xmlns:xlink="http://www.w3.org/1999/xlink" viewBox="0 0 267.29 99"><defs><style>.cls-1{fill:#c5c7c9;}.cls-2{fill:url(#linear-gradient);}.cls-3{fill:#1e87ff;}.cls-4{fill:#231f96;}</style><linearGradient id="linear-gradient" x1="196.26" y1="1290.06" x2="252.68" y2="1290.06" gradientTransform="matrix(1, 0, 0, -1, 0, 1316.58)" gradientUnits="userSpaceOnUse"><stop offset="0.01" stop-color="#b4f759"/><stop offset="0.05" stop-color="#90ed6f"/><stop offset="0.15" stop-color="#35d5a5"/><stop offset="0.2" stop-color="#00c7c5"/><stop offset="0.41" stop-color="#2d9be0"/><stop offset="0.6" stop-color="#5277f7"/><stop offset="0.66" stop-color="#5b76f7"/><stop offset="0.77" stop-color="#7374f6"/><stop offset="0.9" stop-color="#9a70f4"/><stop offset="1" stop-color="#bb6df3"/></linearGradient></defs><title>logo</title><path class="cls-1" d="M264.12,16.92s-2.51-3.11-6-3.11-23.06-2.37-37.23,8c0,0-2.74-.6-5.5,2.22s-9.91,9.19-11,19,16,8.3,16,8.3,20.77.45,32.62-9c.2,0,.22.89.22.89S275.34,29.67,264.12,16.92ZM221.31,38.58c-.58-.32-1.35-.6-1.91-.92a2.56,2.56,0,0,0-2.17-.11,3.22,3.22,0,0,0-1.71,2.16c-.37,1.08.11,1.95.38,2.89-4.05-3.42-2.37-9.7,4.24-15.06,1.44-1.23,3-2.28,4.63-3.43.41-.42,1-.88.85-1.13l-.54-.14a18.11,18.11,0,0,0-6.55,1.82c5.82-3.46,13-5.66,18.91-5.58.94,0,1.69.12,2.63.15a8.49,8.49,0,0,1,2.11.41c1,.43,2.15.62,3.15,1.06a6.59,6.59,0,0,0,1,0c1.56-.22,1.67-1.3,1.81-1.95a2.42,2.42,0,0,0-.75-2.19c3.69,2.08,4.71,5.84,1.44,10.36-.75,1-1.72,2-2.69,3.11-1.6,1.53-3.67,2.84-5.32,4.42-.42.37-.21.56-.2.81.66.57,2.59.29,4.09-.26,1.28-.48,2.76-1,4-1.63C240,39.23,227.65,41.77,221.31,38.58Z"/><path class="cls-2" d="M242.35,6s-4.48-4.09-8-4.09S209.79-1.2,202.19,12.46c0,0-3.13-.78-4.09,2.93s-4.09,12.11,1,25,21.25,10.93,21.25,10.93,21.05.58,26.9-11.91c.19,0,.78,1.16.78,1.16S261.64,22.81,242.35,6Zm-29.1,28.53c-.78-.44-1.73-.79-2.48-1.21s-1.46-.69-2.24-.15c-.9.78-.47,1.93-.35,2.84a11.38,11.38,0,0,0,2.2,3.79A16.18,16.18,0,0,1,205.1,20a38.58,38.58,0,0,1,2.46-4.51c.14-.55.43-1.16.13-1.49l-.63-.2a9.31,9.31,0,0,0-5.39,2.42A19.53,19.53,0,0,1,217,8.87c1,0,1.77.15,2.73.19a9.63,9.63,0,0,1,2.37.54c1.26.58,2.54.82,3.82,1.4a3.88,3.88,0,0,0,1,0c1.42-.29.86-1.7.58-2.56A6.54,6.54,0,0,0,225.4,5.6c5,2.74,8.41,7.69,8,13.64a32.56,32.56,0,0,1-.73,4.1c-.62,2-1.85,3.74-2.51,5.83-.19.48.14.73.31,1.06,1,.75,2.78.39,3.93-.33a25.94,25.94,0,0,0,3-2.16C232.38,35.4,221.6,38.73,213.25,34.55Z"/><path class="cls-3" d="M132.42,96.14c0-.43.05-1.07.05-1.62V86.93h1.13v3.95h0a2.31,2.31,0,0,1,2.13-1.16c1.56,0,2.66,1.3,2.65,3.21,0,2.24-1.41,3.36-2.81,3.36a2.23,2.23,0,0,1-2.1-1.18h0l-.05,1Zm1.17-2.51a1.84,1.84,0,0,0,.06.41,1.75,1.75,0,0,0,1.71,1.33c1.2,0,1.91-1,1.91-2.41,0-1.26-.65-2.34-1.87-2.34A1.84,1.84,0,0,0,133.66,92a2.71,2.71,0,0,0-.06.47v1.13Z"/><path class="cls-3" d="M140.17,89.86l1.37,3.71c.14.42.3.91.4,1.29h0c.12-.38.24-.86.4-1.31l1.25-3.69h1.2l-1.71,4.48c-.82,2.15-1.37,3.25-2.16,3.92a3,3,0,0,1-1.4.74l-.28-1a3.15,3.15,0,0,0,1-.55,3.45,3.45,0,0,0,1-1.27.81.81,0,0,0,.09-.28.79.79,0,0,0-.08-.29l-2.32-5.79Z"/><path class="cls-3" d="M149.87,88.1a.67.67,0,0,1-.72.7.68.68,0,0,1-.69-.7.69.69,0,0,1,.71-.71A.67.67,0,0,1,149.87,88.1Zm-1.26,8V89.86h1.14v6.28Z"/><path class="cls-3" d="M151.64,91.56c0-.65,0-1.18-.06-1.7h1l.07,1h0a2.29,2.29,0,0,1,2.08-1.18c.87,0,2.21.51,2.21,2.67v3.74h-1.14V92.51c0-1-.38-1.85-1.45-1.85a1.63,1.63,0,0,0-1.53,1.16,1.71,1.71,0,0,0-.08.54v3.77h-1.14V91.56Z"/><path class="cls-3" d="M158.83,91.56c0-.65,0-1.18-.05-1.7h1l.06,1h0A2.32,2.32,0,0,1,162,89.72c.87,0,2.22.51,2.22,2.67v3.74H163V92.51c0-1-.37-1.85-1.45-1.85A1.63,1.63,0,0,0,160,91.82a1.73,1.73,0,0,0-.07.54v3.77h-1.15V91.56Z"/><path class="cls-3" d="M171.7,93a3.06,3.06,0,0,1-3.12,3.33,3,3,0,0,1-3-3.23,3.06,3.06,0,0,1,3.11-3.33A3,3,0,0,1,171.7,93Zm-5,.06c0,1.38.79,2.42,1.9,2.42s1.91-1,1.91-2.44c0-1.06-.54-2.41-1.88-2.41S166.73,91.82,166.73,93Z"/><path class="cls-3" d="M173.49,89.86l1.23,3.53a15.54,15.54,0,0,1,.51,1.61h0c.14-.52.32-1,.53-1.61L177,89.86h1.19l-2.46,6.28h-1.09l-2.38-6.28Z"/><path class="cls-3" d="M180.74,93.39l-.91,2.75h-1.17l3-8.74H183l3,8.74h-1.21l-.93-2.75Zm2.86-.88L182.75,90c-.2-.57-.32-1.09-.45-1.6h0c-.13.52-.27,1-.44,1.58L181,92.51Z"/><path class="cls-3" d="M191.53,95.91a4.23,4.23,0,0,1-1.8.36,3,3,0,0,1-3.12-3.21A3.18,3.18,0,0,1,190,89.73a4,4,0,0,1,1.59.32l-.26.89a2.63,2.63,0,0,0-1.33-.3,2.37,2.37,0,0,0,0,4.72,3.3,3.3,0,0,0,1.4-.31Z"/><path class="cls-3" d="M194.41,88.06v1.8h1.64v.87h-1.64v3.39c0,.77.22,1.22.85,1.22a2.44,2.44,0,0,0,.66-.08l.06.86a2.86,2.86,0,0,1-1,.15,1.62,1.62,0,0,1-1.24-.47,2.37,2.37,0,0,1-.43-1.64V90.73h-1v-.87h1v-1.5Z"/><path class="cls-3" d="M198.6,88.1a.67.67,0,0,1-.73.7.68.68,0,0,1-.69-.7.7.7,0,0,1,.72-.71A.67.67,0,0,1,198.6,88.1Zm-1.27,8V89.86h1.15v6.28Z"/><path class="cls-3" d="M206,93a3.06,3.06,0,0,1-3.12,3.33,3,3,0,0,1-3-3.23A3.06,3.06,0,0,1,203,89.72,3,3,0,0,1,206,93Zm-5,.06c0,1.38.79,2.42,1.9,2.42s1.91-1,1.91-2.44c0-1.06-.53-2.41-1.88-2.41S201.06,91.82,201.06,93Z"/><path class="cls-3" d="M207.48,91.56c0-.65,0-1.18-.06-1.7h1l.07,1h0a2.29,2.29,0,0,1,2.08-1.18c.87,0,2.21.51,2.21,2.67v3.74h-1.14V92.51c0-1-.38-1.85-1.45-1.85a1.63,1.63,0,0,0-1.53,1.16,1.71,1.71,0,0,0-.08.54v3.77h-1.14V91.56Z"/><path class="cls-4" d="M0,77.55V50.91H7a9.72,9.72,0,0,1,7.44,3A11.64,11.64,0,0,1,17.31,62v4.31q0,5.25-2.78,8.25a9.91,9.91,0,0,1-7.64,3ZM5.37,55.39V73.08H7c1.8,0,3.06-.47,3.79-1.42s1.11-2.57,1.15-4.89V62.14q0-3.73-1.05-5.2A4.2,4.2,0,0,0,7.33,55.4h-2Z"/><path class="cls-4" d="M34.43,72.09H27.09l-1.42,5.46H20L28.3,50.92h4.92L41.6,77.55H35.85Zm-6.17-4.48h5l-2.49-9.49Z"/><path class="cls-4" d="M59.31,68.27q0,4.67-1.6,7.15A5.27,5.27,0,0,1,53,77.92a4.61,4.61,0,0,1-3.88-2v9.2H43.89V57.75h4.8l.18,1.81a4.63,4.63,0,0,1,4-2.18,5.42,5.42,0,0,1,4.76,2.3c1.07,1.54,1.62,3.9,1.64,7.06ZM54.16,67a9.33,9.33,0,0,0-.64-4.06,2.22,2.22,0,0,0-2.13-1.19,2.47,2.47,0,0,0-2.32,1.33v9.28a2.47,2.47,0,0,0,2.36,1.28,2.14,2.14,0,0,0,2.13-1.3,10.21,10.21,0,0,0,.6-4Z"/><path class="cls-4" d="M78.8,68.27a13.31,13.31,0,0,1-1.6,7.15,5.29,5.29,0,0,1-4.77,2.5,4.6,4.6,0,0,1-3.87-2v9.2H63.38V57.75h4.79l.18,1.81a4.66,4.66,0,0,1,4.05-2.18,5.44,5.44,0,0,1,4.76,2.3c1.06,1.54,1.61,3.9,1.64,7.06ZM73.64,67A9.36,9.36,0,0,0,73,62.91a2.23,2.23,0,0,0-2.13-1.19,2.46,2.46,0,0,0-2.32,1.33v9.28a2.45,2.45,0,0,0,2.35,1.28,2.15,2.15,0,0,0,2.14-1.3,10.43,10.43,0,0,0,.59-4V67Z"/><path class="cls-4" d="M91.62,72.24A1.62,1.62,0,0,0,91,71a12.65,12.65,0,0,0-2.81-1.51,11.61,11.61,0,0,1-4.4-2.69,5.07,5.07,0,0,1-1.2-3.45,5.58,5.58,0,0,1,1.87-4.3,7.18,7.18,0,0,1,5-1.69,7.72,7.72,0,0,1,5.21,1.69,5.63,5.63,0,0,1,2,4.52H91.41c0-1.61-.67-2.42-2-2.42a1.79,1.79,0,0,0-1.89,1.94,1.48,1.48,0,0,0,.59,1.16,12.83,12.83,0,0,0,2.76,1.43,11.54,11.54,0,0,1,4.48,2.61A5.32,5.32,0,0,1,96.64,72a5.19,5.19,0,0,1-2,4.26,8,8,0,0,1-5.23,1.61,8.29,8.29,0,0,1-3.84-.85A6.51,6.51,0,0,1,83,74.68,6.17,6.17,0,0,1,82,71.41H87a3.1,3.1,0,0,0,.64,2,2.44,2.44,0,0,0,2,.68C90.92,74.12,91.62,73.5,91.62,72.24Z"/><path class="cls-4" d="M114.15,65.78h-9V77.54H101.8V50.91h13.87v2.87H105.15v9.13h9v2.87Z"/><path class="cls-4" d="M129.85,77.55a6.86,6.86,0,0,1-.42-2.16A5.14,5.14,0,0,1,125,77.92a5.66,5.66,0,0,1-4.2-1.52,5.76,5.76,0,0,1-1.51-4.25,6.06,6.06,0,0,1,2-4.8A8.47,8.47,0,0,1,127,65.54h2.38V63.45a2.77,2.77,0,0,0-3.18-3.28,3.31,3.31,0,0,0-2.38.87,2.92,2.92,0,0,0-.92,2.2h-3.23a5.22,5.22,0,0,1,.89-2.9A6.33,6.33,0,0,1,123,58.17a7.3,7.3,0,0,1,3.39-.78A6.44,6.44,0,0,1,131,58.9a5.89,5.89,0,0,1,1.62,4.4v10a12.41,12.41,0,0,0,.62,4v.29h-3.36ZM125.52,75a4.3,4.3,0,0,0,2.28-.66,4,4,0,0,0,1.57-1.64V67.94h-1.82a6.18,6.18,0,0,0-3.65,1,3.27,3.27,0,0,0-1.34,2.79,3.63,3.63,0,0,0,.68,2.44A3,3,0,0,0,125.52,75Z"/><path class="cls-4" d="M145.42,75.15a3.42,3.42,0,0,0,2.57-1,4.19,4.19,0,0,0,1.06-2.85h3.06a6.72,6.72,0,0,1-2,4.73,6.41,6.41,0,0,1-4.68,1.88,6.9,6.9,0,0,1-5.61-2.31c-1.29-1.55-1.93-3.84-1.93-6.89V66.53c0-3,.64-5.26,1.92-6.81a6.83,6.83,0,0,1,5.6-2.34,6.25,6.25,0,0,1,4.81,1.92,7.84,7.84,0,0,1,1.9,5.25H149a5.32,5.32,0,0,0-1-3.29,3.23,3.23,0,0,0-2.6-1.1,3.68,3.68,0,0,0-3.2,1.42,8.11,8.11,0,0,0-1.08,4.65v2.53c0,2.32.34,4,1,4.93A3.77,3.77,0,0,0,145.42,75.15Z"/><path class="cls-4" d="M161,53v4.8h3v2.61h-3v12.3a3.33,3.33,0,0,0,.39,1.78,1.45,1.45,0,0,0,1.31.6,3.94,3.94,0,0,0,1.3-.22l0,2.73a7.21,7.21,0,0,1-2.25.36,3.42,3.42,0,0,1-2.93-1.37,6.42,6.42,0,0,1-1-3.88V60.37h-3V57.75h3V53H161Z"/><path class="cls-4" d="M167.74,66.74a10.41,10.41,0,0,1,2.09-6.84,7.41,7.41,0,0,1,11.06-.06A10.12,10.12,0,0,1,183,66.52V68.6A10.39,10.39,0,0,1,181,75.41a7.45,7.45,0,0,1-11.08.08,10.08,10.08,0,0,1-2.15-6.59V66.74ZM171,68.6a8.35,8.35,0,0,0,1.2,4.8,3.71,3.71,0,0,0,3.23,1.75q4.28,0,4.41-6.18V66.74a8.37,8.37,0,0,0-1.21-4.81,3.74,3.74,0,0,0-3.23-1.76,3.69,3.69,0,0,0-3.19,1.76,8.43,8.43,0,0,0-1.2,4.79V68.6Z"/><path class="cls-4" d="M196.34,60.79a7.59,7.59,0,0,0-1.47-.13q-2.49,0-3.48,2.73V77.55h-3.23V57.75h3.15l.05,2A4,4,0,0,1,195,57.38a2.81,2.81,0,0,1,1.27.26Z"/><path class="cls-4" d="M206.24,72.17l3.6-14.42h3.44l-6.47,22.59a8.67,8.67,0,0,1-2.07,3.87,4.21,4.21,0,0,1-3,1.32,6.55,6.55,0,0,1-1.68-.29V82.5l.71.07a3.27,3.27,0,0,0,2.2-.67,4.64,4.64,0,0,0,1.3-2.31l.64-2.21-5.82-19.62h3.54Z"/></svg>